<mxfile host="65bd71144e">
    <diagram id="i0kpc1rrfFxgzFOLtM8V" name="Page-1">
        <mxGraphModel dx="587" dy="618" grid="1" gridSize="10" guides="1" tooltips="1" connect="1" arrows="1" fold="1" page="1" pageScale="1" pageWidth="850" pageHeight="1100" math="0" shadow="0">
            <root>
                <mxCell id="0"/>
                <mxCell id="1" parent="0"/>
                <mxCell id="26" value="" style="rounded=0;whiteSpace=wrap;html=1;dashed=1;labelBackgroundColor=none;fillColor=none;" parent="1" vertex="1">
                    <mxGeometry x="80" y="220" width="490" height="260" as="geometry"/>
                </mxCell>
                <mxCell id="27" value="Simulace" style="text;html=1;strokeColor=none;fillColor=none;align=center;verticalAlign=middle;whiteSpace=wrap;rounded=0;dashed=1;labelBackgroundColor=none;movable=1;resizable=1;rotatable=1;deletable=1;editable=1;connectable=1;" parent="1" vertex="1">
                    <mxGeometry x="80" y="220" width="70" height="30" as="geometry"/>
                </mxCell>
                <mxCell id="28" style="edgeStyle=none;html=1;exitX=0.5;exitY=1;exitDx=0;exitDy=0;entryX=0;entryY=0;entryDx=45;entryDy=0;dashed=1;endArrow=classic;endFill=1;entryPerimeter=0;" parent="1" source="30" target="52" edge="1">
                    <mxGeometry relative="1" as="geometry">
                        <mxPoint x="500" y="400" as="targetPoint"/>
                    </mxGeometry>
                </mxCell>
                <mxCell id="29" value="Všechny&lt;div&gt;události&lt;/div&gt;" style="edgeLabel;html=1;align=center;verticalAlign=middle;resizable=0;points=[];labelBackgroundColor=none;" parent="28" vertex="1" connectable="0">
                    <mxGeometry x="-0.201" y="2" relative="1" as="geometry">
                        <mxPoint x="28" as="offset"/>
                    </mxGeometry>
                </mxCell>
                <mxCell id="30" value="Event handler" style="rounded=0;whiteSpace=wrap;html=1;" parent="1" vertex="1">
                    <mxGeometry x="460" y="290" width="80" height="50" as="geometry"/>
                </mxCell>
                <mxCell id="31" style="edgeStyle=none;html=1;exitX=0;exitY=0;exitDx=100;exitDy=22.5;entryX=0;entryY=0;entryDx=0;entryDy=25;endArrow=classic;endFill=1;exitPerimeter=0;entryPerimeter=0;" parent="1" source="45" target="47" edge="1">
                    <mxGeometry relative="1" as="geometry">
                        <mxPoint x="260" y="274.9999999999999" as="targetPoint"/>
                    </mxGeometry>
                </mxCell>
                <mxCell id="32" value="Vstoupit&lt;br&gt;do místnosti" style="edgeLabel;html=1;align=center;verticalAlign=middle;resizable=0;points=[];labelBackgroundColor=none;" parent="31" vertex="1" connectable="0">
                    <mxGeometry x="-0.2167" relative="1" as="geometry">
                        <mxPoint x="-10" y="-25" as="offset"/>
                    </mxGeometry>
                </mxCell>
                <mxCell id="33" style="edgeStyle=none;html=1;exitX=0;exitY=0;exitDx=100;exitDy=47.5;entryX=0;entryY=0;entryDx=0;entryDy=25;endArrow=classic;endFill=1;exitPerimeter=0;entryPerimeter=0;" parent="1" source="45" target="48" edge="1">
                    <mxGeometry relative="1" as="geometry">
                        <mxPoint x="260" y="354.9999999999999" as="targetPoint"/>
                    </mxGeometry>
                </mxCell>
                <mxCell id="34" value="Vypnout/Zapnout" style="edgeLabel;html=1;align=center;verticalAlign=middle;resizable=0;points=[];labelBackgroundColor=none;" parent="33" vertex="1" connectable="0">
                    <mxGeometry x="-0.3507" y="-1" relative="1" as="geometry">
                        <mxPoint x="-6" y="21" as="offset"/>
                    </mxGeometry>
                </mxCell>
                <mxCell id="45" value="Uživatel" style="verticalLabelPosition=bottom;verticalAlign=top;html=1;shape=mxgraph.basic.layered_rect;dx=10;outlineConnect=0;whiteSpace=wrap;spacing=0;spacingTop=-53;spacingBottom=0;spacingRight=10;" parent="1" vertex="1">
                    <mxGeometry x="95" y="285" width="100" height="60" as="geometry"/>
                </mxCell>
                <mxCell id="47" value="Místnost" style="verticalLabelPosition=bottom;verticalAlign=top;html=1;shape=mxgraph.basic.layered_rect;dx=10;outlineConnect=0;whiteSpace=wrap;spacing=0;spacingTop=-53;spacingBottom=0;spacingRight=10;" parent="1" vertex="1">
                    <mxGeometry x="260" y="240" width="100" height="60" as="geometry"/>
                </mxCell>
                <mxCell id="39" style="edgeStyle=none;html=1;exitX=0.889;exitY=0.454;exitDx=0;exitDy=0;entryX=0;entryY=0.25;entryDx=0;entryDy=0;dashed=1;exitPerimeter=0;" parent="1" source="47" target="30" edge="1">
                    <mxGeometry relative="1" as="geometry">
                        <mxPoint x="340" y="262.4999999999999" as="sourcePoint"/>
                    </mxGeometry>
                </mxCell>
                <mxCell id="40" value="Uživatel X vstopil&lt;div&gt;do místnosti Y&lt;/div&gt;" style="edgeLabel;html=1;align=center;verticalAlign=middle;resizable=0;points=[];labelBackgroundColor=none;" parent="39" vertex="1" connectable="0">
                    <mxGeometry x="-0.3583" relative="1" as="geometry">
                        <mxPoint x="33" y="-15" as="offset"/>
                    </mxGeometry>
                </mxCell>
                <mxCell id="48" value="Chytré zařízení" style="verticalLabelPosition=bottom;verticalAlign=top;html=1;shape=mxgraph.basic.layered_rect;dx=10;outlineConnect=0;whiteSpace=wrap;spacing=0;spacingTop=-53;spacingBottom=0;spacingRight=10;" parent="1" vertex="1">
                    <mxGeometry x="260" y="330" width="100" height="60" as="geometry"/>
                </mxCell>
                <mxCell id="36" style="edgeStyle=none;html=1;exitX=0.896;exitY=0.477;exitDx=0;exitDy=0;entryX=0;entryY=0.75;entryDx=0;entryDy=0;dashed=1;exitPerimeter=0;" parent="1" source="48" target="30" edge="1">
                    <mxGeometry relative="1" as="geometry">
                        <mxPoint x="340" y="367.4999999999999" as="sourcePoint"/>
                    </mxGeometry>
                </mxCell>
                <mxCell id="37" value="Uživatel X&lt;div&gt;zapnul/vypnul&amp;nbsp;&lt;span style=&quot;&quot;&gt;zařízení Y&lt;/span&gt;&lt;/div&gt;" style="edgeLabel;html=1;align=center;verticalAlign=middle;resizable=0;points=[];labelBackgroundColor=none;" parent="36" vertex="1" connectable="0">
                    <mxGeometry x="-0.2943" y="-2" relative="1" as="geometry">
                        <mxPoint x="36" y="10" as="offset"/>
                    </mxGeometry>
                </mxCell>
                <mxCell id="51" value="" style="group" parent="1" vertex="1" connectable="0">
                    <mxGeometry x="480" y="505" width="70" height="90" as="geometry"/>
                </mxCell>
                <mxCell id="50" value="" style="shape=note;whiteSpace=wrap;html=1;backgroundOutline=1;darkOpacity=0.05;labelBackgroundColor=none;" parent="51" vertex="1">
                    <mxGeometry x="10" y="10" width="60" height="80" as="geometry"/>
                </mxCell>
                <mxCell id="49" value="" style="shape=note;whiteSpace=wrap;html=1;backgroundOutline=1;darkOpacity=0.05;labelBackgroundColor=none;" parent="51" vertex="1">
                    <mxGeometry x="5" y="5" width="60" height="80" as="geometry"/>
                </mxCell>
                <mxCell id="44" value="&lt;br&gt;&lt;br&gt;Trénovací data" style="shape=note;whiteSpace=wrap;html=1;backgroundOutline=1;darkOpacity=0.05;labelBackgroundColor=none;" parent="51" vertex="1">
                    <mxGeometry width="60" height="80" as="geometry"/>
                </mxCell>
                <mxCell id="52" value="Logování pro&lt;div&gt;uživatele X&lt;/div&gt;" style="verticalLabelPosition=bottom;verticalAlign=top;html=1;shape=mxgraph.basic.layered_rect;dx=10;outlineConnect=0;whiteSpace=wrap;spacing=0;spacingTop=-53;spacingBottom=0;spacingRight=10;" vertex="1" parent="1">
                    <mxGeometry x="455" y="400" width="100" height="60" as="geometry"/>
                </mxCell>
                <mxCell id="42" style="edgeStyle=none;html=1;exitX=0.5;exitY=1;exitDx=0;exitDy=0;entryX=0;entryY=0;entryDx=20;entryDy=0;entryPerimeter=0;endArrow=classic;endFill=1;" parent="1" target="44" edge="1">
                    <mxGeometry relative="1" as="geometry">
                        <mxPoint x="500" y="450" as="sourcePoint"/>
                    </mxGeometry>
                </mxCell>
            </root>
        </mxGraphModel>
    </diagram>
</mxfile>